<?xml version="1.0" encoding="UTF-8" standalone="no"?>
<!DOCTYPE svg PUBLIC "-//W3C//DTD SVG 1.1//EN" "http://www.w3.org/Graphics/SVG/1.1/DTD/svg11.dtd">
<svg width="100%" height="100%" viewBox="0 0 2048 2048" version="1.1" xmlns="http://www.w3.org/2000/svg" xmlns:xlink="http://www.w3.org/1999/xlink" xml:space="preserve" xmlns:serif="http://www.serif.com/" style="fill-rule:evenodd;clip-rule:evenodd;stroke-linejoin:round;stroke-miterlimit:2;">
    <g id="Base-Icon" serif:id="Base Icon" transform="matrix(1.17162,0,0,1.17162,-175.804,-191.852)">
        <g id="Left-Eye" serif:id="Left Eye">
            <path d="M275.304,387C275.504,386.6 360.304,446.6 460.104,519.1C559.904,591.5 689.304,685.4 747.504,727.6C805.704,769.9 853.904,805.3 854.504,806.2C855.304,807.5 833.704,830.8 810.604,853C770.604,891.4 722.604,937.9 693.004,966.7C682.704,976.8 671.404,975.8 650.504,944.7C603.604,875 531.004,767.5 529.604,765.5C528.104,763.6 261.804,1029.5 261.804,1029.5C261.804,1029.5 261.704,736 261.804,732.5C265.104,732.3 507.104,732.8 507.104,732.5C507.104,732.2 275.204,387.4 275.304,387Z"/>
            <path d="M409.604,393.1C586.004,402.3 868.804,416.8 911.404,418.9C938.804,420.3 942.104,420.333 944.104,421C947.104,422 953.404,425.1 949.304,443.5C945.004,462.5 924.504,559 917.604,593C914.504,608.1 911.304,621.6 910.404,622.9C909.104,624.9 908.304,625.2 904.704,624.7C902.504,624.5 464.104,455.9 428.104,442C392.104,428.1 290.304,388.6 289.704,388C288.404,386.7 279.704,386.3 409.604,393.1Z"/>
        </g>
        <g id="Right-Eye" serif:id="Right Eye">
            <path d="M1638.5,393.1C1768.4,386.3 1759.7,386.7 1758.4,388C1757.8,388.6 1656,428.1 1620,442C1584,455.9 1145.6,624.5 1143.4,624.7C1139.8,625.2 1139,624.9 1137.7,622.9C1136.8,621.6 1133.6,608.1 1130.5,593C1123.6,559 1103.1,462.5 1098.8,443.5C1094.7,425.1 1101,422 1104,421C1106,420.333 1109.3,420.3 1136.7,418.9C1179.3,416.8 1462.1,402.3 1638.5,393.1Z"/>
            <path d="M1772.8,387C1772.9,387.4 1541,732.2 1541,732.5C1541,732.8 1783,732.3 1786.3,732.5C1786.4,736 1786.3,1029.5 1786.3,1029.5C1786.3,1029.5 1520,763.6 1518.5,765.5C1517.1,767.5 1444.5,875 1397.6,944.7C1376.7,975.8 1365.4,976.8 1355.1,966.7C1325.5,937.9 1277.5,891.4 1237.5,853C1214.4,830.8 1192.8,807.5 1193.6,806.2C1194.2,805.3 1242.4,769.9 1300.6,727.6C1358.8,685.4 1488.2,591.5 1588,519.1C1687.8,446.6 1772.6,386.6 1772.8,387Z"/>
        </g>
        <g id="Mouth" transform="matrix(1,0,0,1,0,16.5)">
            <path d="M1024.05,1516C1018.09,1517.05 531.388,1672 527.904,1672C523.704,1672 522.604,1671.5 517.404,1667.1C514.204,1664.4 343.104,1496.2 343.104,1494.5C343.104,1492.21 454.734,1396.63 455.504,1396C456.225,1395.41 457.609,1395.7 458.121,1396.28C459.029,1397.3 605.714,1595.7 606.704,1596.7C608.437,1598.44 609.362,1598.28 611.404,1596.8C612.673,1595.88 908.104,1329.5 908.104,1325.6C908.104,1323.61 724.104,1013 724.104,1013L1324,1013C1324,1013 1140,1323.61 1140,1325.6C1140,1329.5 1435.43,1595.88 1436.7,1596.8C1438.74,1598.28 1439.67,1598.44 1441.4,1596.7C1442.39,1595.7 1589.08,1397.3 1589.98,1396.28C1590.5,1395.7 1591.88,1395.41 1592.6,1396C1593.37,1396.63 1705,1492.21 1705,1494.5C1705,1496.2 1533.9,1664.4 1530.7,1667.1C1525.5,1671.5 1524.4,1672 1520.2,1672C1516.72,1672 1030.01,1517.05 1024.05,1516ZM1152,1105L896.104,1105L1024.05,1279.93L1152,1105Z"/>
        </g>
    </g>
</svg>
